<svg width="381" height="216" viewBox="0 0 381 216" fill="none" xmlns="http://www.w3.org/2000/svg">
<g clip-path="url(#clip0_2628_1174)">
<mask id="mask0_2628_1174" style="mask-type:luminance" maskUnits="userSpaceOnUse" x="0" y="0" width="381" height="216">
<path d="M380.3 0H0V215.52H380.3V0Z" fill="white"/>
</mask>
<g mask="url(#mask0_2628_1174)">
<mask id="mask1_2628_1174" style="mask-type:luminance" maskUnits="userSpaceOnUse" x="0" y="0" width="381" height="216">
<path d="M380.3 0H0V215.52H380.3V0Z" fill="white"/>
</mask>
<g mask="url(#mask1_2628_1174)">
<path d="M188.97 111.61C186.58 109.36 184.74 106.7 183.46 103.62C182.17 100.55 181.53 97.1701 181.53 93.5001C181.53 90.3801 181.95 87.5101 182.77 84.8901C183.6 82.2801 184.84 79.7501 186.49 77.3201C188.14 74.8901 190.23 72.5001 192.76 70.1501C195.29 67.8101 198.25 65.4001 201.64 62.9201C197.6 58.2401 194.52 53.8801 192.41 49.8301C190.3 45.7901 189.24 41.7501 189.24 37.7101C189.24 34.5901 189.79 31.7001 190.89 29.0301C191.99 26.3701 193.55 24.0501 195.57 22.0701C197.59 20.1001 200.05 18.5601 202.94 17.4601C203.59 17.2101 204.26 17.0001 204.94 16.8101H22.14V115.86H195.15C192.82 114.71 190.76 113.3 188.97 111.61Z" fill="#00ACA1"/>
</g>
<mask id="mask2_2628_1174" style="mask-type:luminance" maskUnits="userSpaceOnUse" x="0" y="0" width="381" height="216">
<path d="M380.3 0H0V215.52H380.3V0Z" fill="white"/>
</mask>
<g mask="url(#mask2_2628_1174)">
<path d="M198.54 80.9602C196.2 84.0802 195.03 87.7602 195.03 91.9802C195.03 96.6602 196.57 100.47 199.64 103.41C202.71 106.35 207.01 107.82 212.52 107.82C216.19 107.82 219.87 106.92 223.54 105.13C227.21 103.34 230.57 100.7 233.6 97.2102L209.22 71.1802C204.44 74.5802 200.88 77.8402 198.54 80.9602Z" fill="#526081"/>
</g>
<mask id="mask3_2628_1174" style="mask-type:luminance" maskUnits="userSpaceOnUse" x="0" y="0" width="381" height="216">
<path d="M380.3 0H0V215.52H380.3V0Z" fill="white"/>
</mask>
<g mask="url(#mask3_2628_1174)">
<path d="M219.97 16.8101C222.51 17.5301 224.8 18.6201 226.82 20.1101V34.9601C226.82 34.9601 222.72 29.7601 221.26 28.2101C219.1 25.9201 216.46 24.7701 213.34 24.7701C209.85 24.7701 207 25.8501 204.8 28.0101C202.6 30.1701 201.49 33.0001 201.49 36.4801C201.49 39.9701 202.55 43.1901 204.04 46.4701C209.62 58.7801 240.34 88.9601 240.34 88.9601C246.13 81.4301 249.98 72.9801 251.91 63.6201H240.62V54.1201H269.82V63.6201H261.55C260.08 69.6801 258.1 75.3501 255.63 80.6301C253.15 85.9101 250.16 91.0301 246.67 95.9901L255.06 104.92C259.26 109.39 265.11 111.92 271.24 111.92H273.89V115.87H353.6V16.8101H219.97Z" fill="#526081"/>
</g>
<mask id="mask4_2628_1174" style="mask-type:luminance" maskUnits="userSpaceOnUse" x="0" y="0" width="381" height="216">
<path d="M380.3 0H0V215.52H380.3V0Z" fill="white"/>
</mask>
<g mask="url(#mask4_2628_1174)">
<path d="M333.11 89.3901C331.72 85.3201 330.12 80.7001 328.33 75.5101C326.53 70.3301 324.72 65.0401 322.9 59.6301C321.07 54.2201 319.3 48.9001 317.57 43.6901C315.85 38.4901 314.34 33.8601 313.06 29.8101L312.37 27.6401H288.28V41.0801H292.68L274.05 93.6001H267.34V107.05H295.72V93.5801H289.8L293.53 82.3301H314.05C315.47 86.5001 316.61 89.9601 317.48 92.7001C318.49 95.9001 319.27 98.4001 319.81 100.19C320.34 101.94 320.77 103.45 321.1 104.71L321.71 107.03H339.14L333.11 89.3901ZM297.81 68.8801L303.99 49.9201L310.17 68.8801H297.81Z" fill="white"/>
</g>
<mask id="mask5_2628_1174" style="mask-type:luminance" maskUnits="userSpaceOnUse" x="0" y="0" width="381" height="216">
<path d="M380.3 0H0V215.52H380.3V0Z" fill="white"/>
</mask>
<g mask="url(#mask5_2628_1174)">
<path d="M95.5 27.6201H35.4V49.9001H49.86V41.0601H57.56V93.5801H50.55V107.03H73.44V41.0601H95.5V27.6201Z" fill="white"/>
</g>
<mask id="mask6_2628_1174" style="mask-type:luminance" maskUnits="userSpaceOnUse" x="0" y="0" width="381" height="216">
<path d="M380.3 0H0V215.52H380.3V0Z" fill="white"/>
</mask>
<g mask="url(#mask6_2628_1174)">
<path d="M139.85 68.0702V82.2202H152.38C150.87 85.4302 148.86 87.9702 146.39 89.8202C142.91 92.4102 138.6 93.6702 133.21 93.6702C129.78 93.6702 126.53 93.0402 123.54 91.7802C120.56 90.5302 117.93 88.7302 115.74 86.4402C113.53 84.1402 111.74 81.3302 110.44 78.0902C109.14 74.8502 108.48 71.2202 108.48 67.3102C108.48 63.3302 109.14 59.6702 110.44 56.4302C111.74 53.2102 113.53 50.4202 115.76 48.1602C118 45.8902 120.64 44.1002 123.61 42.8402C126.56 41.5902 129.79 40.9502 133.22 40.9502C138.52 40.9502 142.77 42.2502 146.2 44.9202C149.62 47.5802 152.15 51.6202 153.71 56.9202L154.37 59.1502H166.41V28.6402H152.16V31.7302C146.55 28.0602 140.2 26.2002 133.22 26.2002C127.28 26.2002 121.74 27.2602 116.77 29.3402C111.79 31.4302 107.45 34.3602 103.85 38.0702C100.26 41.7702 97.43 46.1602 95.42 51.1102C93.41 56.0702 92.4 61.5202 92.4 67.3202C92.4 73.0502 93.42 78.4902 95.42 83.4702C97.42 88.4702 100.27 92.8702 103.86 96.5302C107.45 100.2 111.79 103.13 116.76 105.25C121.73 107.37 127.27 108.44 133.23 108.44C138.28 108.44 142.92 107.61 147.03 105.99C149.31 105.09 151.57 103.88 153.8 102.39V107.03H168.26V68.0702H139.85Z" fill="white"/>
</g>
<mask id="mask7_2628_1174" style="mask-type:luminance" maskUnits="userSpaceOnUse" x="0" y="0" width="381" height="216">
<path d="M380.3 0H0V215.52H380.3V0Z" fill="white"/>
</mask>
<g mask="url(#mask7_2628_1174)">
<path d="M353.63 125.16H22.14V129.16H353.63V125.16Z" fill="#00ACA1"/>
</g>
<mask id="mask8_2628_1174" style="mask-type:luminance" maskUnits="userSpaceOnUse" x="0" y="0" width="381" height="216">
<path d="M380.3 0H0V215.52H380.3V0Z" fill="white"/>
</mask>
<g mask="url(#mask8_2628_1174)">
<path d="M28.07 169.93V167.06H30.86V143.63H25.31V147.16H22.03V140.75H43.51V143.63H34.71V169.93H28.07Z" fill="#00ACA1"/>
</g>
<mask id="mask9_2628_1174" style="mask-type:luminance" maskUnits="userSpaceOnUse" x="0" y="0" width="381" height="216">
<path d="M380.3 0H0V215.52H380.3V0Z" fill="white"/>
</mask>
<g mask="url(#mask9_2628_1174)">
<path d="M70.37 169.93V166.77C68.94 168.07 67.47 169.01 65.97 169.61C64.47 170.21 62.79 170.5 60.92 170.5C58.7 170.5 56.68 170.11 54.84 169.32C53 168.54 51.42 167.47 50.1 166.12C48.78 164.77 47.74 163.17 47 161.32C46.26 159.47 45.88 157.48 45.88 155.34C45.88 153.18 46.25 151.18 47 149.34C47.74 147.5 48.78 145.9 50.1 144.54C51.42 143.18 53 142.11 54.84 141.34C56.68 140.57 58.7 140.18 60.92 140.18C64.3 140.18 67.23 141.35 69.71 143.7V141.15H72.91V150.83H70.28C69.58 148.45 68.44 146.65 66.86 145.42C65.28 144.19 63.3 143.57 60.92 143.57C59.38 143.57 57.94 143.86 56.61 144.42C55.27 144.99 54.1 145.79 53.08 146.81C52.07 147.84 51.27 149.07 50.69 150.52C50.11 151.96 49.82 153.57 49.82 155.32C49.82 157.05 50.11 158.64 50.69 160.08C51.27 161.53 52.06 162.77 53.06 163.81C54.06 164.85 55.23 165.65 56.59 166.22C57.94 166.79 59.38 167.07 60.92 167.07C63.32 167.07 65.32 166.48 66.92 165.28C68.51 164.09 69.66 162.34 70.36 160.01H64.81V156.85H73.64V169.9H70.37V169.93Z" fill="#00ACA1"/>
</g>
<mask id="mask10_2628_1174" style="mask-type:luminance" maskUnits="userSpaceOnUse" x="0" y="0" width="381" height="216">
<path d="M380.3 0H0V215.52H380.3V0Z" fill="white"/>
</mask>
<g mask="url(#mask10_2628_1174)">
<path d="M88.61 169.93H79.78V167.05H82.09L90.4 143.63H88.13V140.75H95.59C96.1 142.37 96.7 144.22 97.39 146.3C98.08 148.38 98.79 150.5 99.52 152.66C100.25 154.82 100.97 156.94 101.69 159.01C102.41 161.07 103.04 162.92 103.59 164.54C104.14 166.16 104.76 167.96 105.43 169.93H101.18C101.04 169.42 100.87 168.8 100.65 168.08C100.43 167.37 100.12 166.37 99.72 165.08C99.31 163.8 98.76 162.13 98.06 160.08H88.09L85.78 167.05H88.62V169.93H88.61ZM97.32 157.21L93.15 144.41L88.98 157.21H97.32Z" fill="#00ACA1"/>
</g>
<mask id="mask11_2628_1174" style="mask-type:luminance" maskUnits="userSpaceOnUse" x="0" y="0" width="381" height="216">
<path d="M380.3 0H0V215.52H380.3V0Z" fill="white"/>
</mask>
<g mask="url(#mask11_2628_1174)">
<path d="M121.23 143.63H118.47V140.75H125.08V167.06H134.84V163.49H138.29V169.93H121.23V143.63Z" fill="black"/>
</g>
<mask id="mask12_2628_1174" style="mask-type:luminance" maskUnits="userSpaceOnUse" x="0" y="0" width="381" height="216">
<path d="M380.3 0H0V215.52H380.3V0Z" fill="white"/>
</mask>
<g mask="url(#mask12_2628_1174)">
<path d="M147.81 169.93H138.98V167.05H141.29L149.6 143.63H147.33V140.75H154.79C155.3 142.37 155.9 144.22 156.59 146.3C157.28 148.38 157.99 150.5 158.72 152.66C159.45 154.82 160.17 156.94 160.89 159.01C161.61 161.07 162.24 162.92 162.79 164.54C163.34 166.16 163.96 167.96 164.63 169.93H160.38C160.24 169.42 160.07 168.8 159.85 168.08C159.63 167.37 159.32 166.37 158.92 165.08C158.51 163.8 157.96 162.13 157.26 160.08H147.29L144.98 167.05H147.82V169.93H147.81ZM156.52 157.21L152.35 144.41L148.18 157.21H156.52Z" fill="black"/>
</g>
<mask id="mask13_2628_1174" style="mask-type:luminance" maskUnits="userSpaceOnUse" x="0" y="0" width="381" height="216">
<path d="M380.3 0H0V215.52H380.3V0Z" fill="white"/>
</mask>
<g mask="url(#mask13_2628_1174)">
<path d="M173.38 170.42L165.44 143.63H163.33V140.75H171.92V143.63H169.2L174.96 161.78L180.39 143.63H177.88V140.75H183.8C183.99 141.32 184.27 142.24 184.63 143.51C185 144.78 185.4 146.19 185.85 147.74C186.3 149.29 186.75 150.9 187.21 152.56C187.67 154.22 188.09 155.73 188.49 157.1C188.88 158.47 189.32 160.03 189.81 161.78C190.38 160.02 190.88 158.46 191.31 157.1C191.74 155.74 192.21 154.22 192.73 152.56C193.24 150.9 193.74 149.29 194.23 147.74C194.72 146.19 195.16 144.78 195.55 143.51C195.94 142.24 196.22 141.32 196.38 140.75H199.74C199.63 141.18 199.54 141.51 199.48 141.72C199.41 141.94 199.35 142.16 199.3 142.39C199.24 142.62 199.16 142.92 199.06 143.28C198.95 143.65 198.78 144.21 198.55 144.96C198.32 145.72 198.02 146.72 197.66 147.98C197.29 149.24 196.81 150.86 196.22 152.86C195.62 154.86 194.9 157.29 194.05 160.15C193.2 163.02 192.18 166.43 190.99 170.4H188.48L182.2 150.06L175.96 170.4H173.38V170.42Z" fill="black"/>
</g>
<mask id="mask14_2628_1174" style="mask-type:luminance" maskUnits="userSpaceOnUse" x="0" y="0" width="381" height="216">
<path d="M380.3 0H0V215.52H380.3V0Z" fill="white"/>
</mask>
<g mask="url(#mask14_2628_1174)">
<path d="M237.85 169.93V166.77C236.42 168.07 234.95 169.01 233.45 169.61C231.95 170.21 230.27 170.5 228.4 170.5C226.18 170.5 224.16 170.11 222.32 169.32C220.48 168.54 218.9 167.47 217.58 166.12C216.26 164.77 215.22 163.17 214.48 161.32C213.74 159.47 213.36 157.48 213.36 155.34C213.36 153.18 213.73 151.18 214.48 149.34C215.22 147.5 216.25 145.9 217.58 144.54C218.9 143.18 220.48 142.11 222.32 141.34C224.16 140.57 226.18 140.18 228.4 140.18C231.78 140.18 234.71 141.35 237.19 143.7V141.15H240.39V150.83H237.76C237.06 148.45 235.92 146.65 234.34 145.42C232.76 144.19 230.78 143.57 228.4 143.57C226.86 143.57 225.42 143.86 224.08 144.42C222.74 144.99 221.57 145.79 220.55 146.81C219.54 147.84 218.74 149.07 218.16 150.52C217.58 151.96 217.29 153.57 217.29 155.32C217.29 157.05 217.58 158.64 218.16 160.08C218.74 161.53 219.53 162.77 220.53 163.81C221.53 164.85 222.71 165.65 224.06 166.22C225.41 166.79 226.85 167.07 228.4 167.07C230.8 167.07 232.8 166.48 234.4 165.28C235.99 164.09 237.14 162.34 237.84 160.01H232.29V156.85H241.12V169.9H237.85V169.93Z" fill="black"/>
</g>
<mask id="mask15_2628_1174" style="mask-type:luminance" maskUnits="userSpaceOnUse" x="0" y="0" width="381" height="216">
<path d="M380.3 0H0V215.52H380.3V0Z" fill="white"/>
</mask>
<g mask="url(#mask15_2628_1174)">
<path d="M256.77 167.06V169.94H246.56V167.06H249.72V143.64H246.56V140.76H259.04C262.36 140.76 264.83 141.34 266.44 142.5C268.05 143.66 268.85 145.52 268.85 148.06C268.85 149.71 268.45 151.06 267.65 152.12C266.85 153.17 265.59 154.09 263.86 154.88C265.51 155.37 266.69 156.1 267.41 157.09C268.12 158.08 268.48 159.5 268.48 161.36V169.94H264.63V161.92C264.63 160.89 264.53 160.02 264.33 159.31C264.13 158.59 263.78 158.01 263.28 157.55C262.78 157.09 262.13 156.75 261.32 156.54C260.51 156.32 259.5 156.22 258.28 156.22H253.58V167.08H256.77V167.06ZM253.57 153.32H257.74C260.2 153.32 262 152.95 263.15 152.2C264.3 151.45 264.87 150.21 264.87 148.46C264.87 146.66 264.31 145.41 263.19 144.7C262.07 143.99 260.25 143.64 257.74 143.64H253.57V153.32Z" fill="black"/>
</g>
<mask id="mask16_2628_1174" style="mask-type:luminance" maskUnits="userSpaceOnUse" x="0" y="0" width="381" height="216">
<path d="M380.3 0H0V215.52H380.3V0Z" fill="white"/>
</mask>
<g mask="url(#mask16_2628_1174)">
<path d="M273.43 149.39C274.19 147.55 275.23 145.95 276.57 144.59C277.91 143.22 279.49 142.15 281.33 141.37C283.17 140.59 285.16 140.2 287.33 140.2C290.71 140.2 293.66 141.13 296.21 142.99C298.21 144.45 299.74 146.24 300.81 148.36C301.88 150.48 302.41 152.81 302.41 155.35C302.41 157.46 302.03 159.44 301.28 161.29C300.52 163.14 299.48 164.75 298.14 166.11C296.8 167.48 295.21 168.55 293.36 169.33C291.51 170.12 289.5 170.51 287.34 170.51C285.18 170.51 283.18 170.12 281.34 169.33C279.5 168.55 277.92 167.47 276.58 166.11C275.24 164.75 274.19 163.15 273.44 161.31C272.68 159.47 272.31 157.49 272.31 155.35C272.31 153.21 272.67 151.22 273.43 149.39ZM277.1 160.15C277.68 161.59 278.47 162.83 279.47 163.86C280.47 164.89 281.64 165.68 283 166.25C284.35 166.82 285.79 167.1 287.33 167.1C288.87 167.1 290.31 166.82 291.67 166.25C293.02 165.68 294.2 164.88 295.2 163.84C296.2 162.8 296.99 161.56 297.57 160.11C298.15 158.67 298.44 157.08 298.44 155.35C298.44 153.6 298.15 151.99 297.57 150.55C296.99 149.1 296.2 147.87 295.2 146.84C294.2 145.81 293.02 145.02 291.67 144.45C290.32 143.88 288.87 143.6 287.33 143.6C285.79 143.6 284.35 143.89 283.01 144.45C281.67 145.02 280.5 145.82 279.49 146.84C278.48 147.87 277.68 149.1 277.1 150.55C276.52 151.99 276.23 153.6 276.23 155.35C276.23 157.1 276.52 158.7 277.1 160.15Z" fill="black"/>
</g>
<mask id="mask17_2628_1174" style="mask-type:luminance" maskUnits="userSpaceOnUse" x="0" y="0" width="381" height="216">
<path d="M380.3 0H0V215.52H380.3V0Z" fill="white"/>
</mask>
<g mask="url(#mask17_2628_1174)">
<path d="M312.23 162.95C312.43 163.87 312.77 164.64 313.24 165.26C313.71 165.88 314.35 166.35 315.14 166.66C315.94 166.97 316.93 167.13 318.12 167.13C319.31 167.13 320.3 166.98 321.1 166.66C321.9 166.35 322.54 165.89 323.02 165.26C323.51 164.64 323.85 163.87 324.05 162.95C324.25 162.03 324.35 160.95 324.35 159.71V140.74H328.2V159.71C328.2 163.33 327.38 166.03 325.75 167.81C324.12 169.59 321.57 170.49 318.11 170.49C314.65 170.49 312.11 169.6 310.49 167.81C308.87 166.02 308.06 163.32 308.06 159.69V143.62H305.26V140.74H314.66V143.62H311.9V159.69C311.93 160.95 312.03 162.03 312.23 162.95Z" fill="black"/>
</g>
<mask id="mask18_2628_1174" style="mask-type:luminance" maskUnits="userSpaceOnUse" x="0" y="0" width="381" height="216">
<path d="M380.3 0H0V215.52H380.3V0Z" fill="white"/>
</mask>
<g mask="url(#mask18_2628_1174)">
<path d="M336.81 169.93V143.71H334.05V140.75H344.59C348.32 140.75 351.11 141.54 352.96 143.1C354.81 144.67 355.74 146.91 355.74 149.83C355.74 152.61 354.79 154.82 352.88 156.46C350.98 158.09 348.21 158.91 344.59 158.91H340.66V169.93H336.81ZM340.66 156.03H344.18C349.23 156.03 351.76 153.96 351.76 149.83C351.76 145.7 349.05 143.63 343.61 143.63H340.65V156.03H340.66Z" fill="black"/>
</g>
<mask id="mask19_2628_1174" style="mask-type:luminance" maskUnits="userSpaceOnUse" x="0" y="0" width="381" height="216">
<path d="M380.3 0H0V215.52H380.3V0Z" fill="white"/>
</mask>
<g mask="url(#mask19_2628_1174)">
<path d="M27.54 195.08V196.33H22.47V186.94H27.54V188.2H23.83V190.96H27.54V192.22H23.83V195.08H27.54Z" fill="#6D6E71"/>
</g>
<mask id="mask20_2628_1174" style="mask-type:luminance" maskUnits="userSpaceOnUse" x="0" y="0" width="381" height="216">
<path d="M380.3 0H0V215.52H380.3V0Z" fill="white"/>
</mask>
<g mask="url(#mask20_2628_1174)">
<path d="M32.46 192.27V196.33H31.09V186.94H35.82V188.2H32.46V191.02H35.82V192.27H32.46Z" fill="#6D6E71"/>
</g>
<mask id="mask21_2628_1174" style="mask-type:luminance" maskUnits="userSpaceOnUse" x="0" y="0" width="381" height="216">
<path d="M380.3 0H0V215.52H380.3V0Z" fill="white"/>
</mask>
<g mask="url(#mask21_2628_1174)">
<path d="M40.53 192.27V196.33H39.16V186.94H43.89V188.2H40.53V191.02H43.89V192.27H40.53Z" fill="#6D6E71"/>
</g>
<mask id="mask22_2628_1174" style="mask-type:luminance" maskUnits="userSpaceOnUse" x="0" y="0" width="381" height="216">
<path d="M380.3 0H0V215.52H380.3V0Z" fill="white"/>
</mask>
<g mask="url(#mask22_2628_1174)">
<path d="M48.6 186.94H47.23V196.34H48.6V186.94Z" fill="#6D6E71"/>
</g>
<mask id="mask23_2628_1174" style="mask-type:luminance" maskUnits="userSpaceOnUse" x="0" y="0" width="381" height="216">
<path d="M380.3 0H0V215.52H380.3V0Z" fill="white"/>
</mask>
<g mask="url(#mask23_2628_1174)">
<path d="M59.43 194.02H61.11C60.67 194.81 60.07 195.42 59.32 195.86C58.57 196.29 57.74 196.51 56.84 196.51C55.53 196.51 54.39 196.03 53.44 195.07C52.49 194.11 52.02 192.95 52.02 191.61C52.02 190.26 52.49 189.11 53.43 188.17C54.37 187.23 55.51 186.76 56.85 186.76C58.76 186.76 60.2 187.62 61.18 189.34H59.53C58.77 188.46 57.89 188.02 56.88 188.02C55.91 188.02 55.09 188.37 54.42 189.08C53.74 189.78 53.4 190.63 53.4 191.63C53.4 192.62 53.74 193.47 54.42 194.2C55.1 194.92 55.91 195.29 56.85 195.29C57.86 195.26 58.72 194.85 59.43 194.02Z" fill="#6D6E71"/>
</g>
<mask id="mask24_2628_1174" style="mask-type:luminance" maskUnits="userSpaceOnUse" x="0" y="0" width="381" height="216">
<path d="M380.3 0H0V215.52H380.3V0Z" fill="white"/>
</mask>
<g mask="url(#mask24_2628_1174)">
<path d="M65.84 186.94H64.47V196.34H65.84V186.94Z" fill="#6D6E71"/>
</g>
<mask id="mask25_2628_1174" style="mask-type:luminance" maskUnits="userSpaceOnUse" x="0" y="0" width="381" height="216">
<path d="M380.3 0H0V215.52H380.3V0Z" fill="white"/>
</mask>
<g mask="url(#mask25_2628_1174)">
<path d="M74.81 195.08V196.33H69.74V186.94H74.81V188.2H71.1V190.96H74.81V192.22H71.1V195.08H74.81Z" fill="#6D6E71"/>
</g>
<mask id="mask26_2628_1174" style="mask-type:luminance" maskUnits="userSpaceOnUse" x="0" y="0" width="381" height="216">
<path d="M380.3 0H0V215.52H380.3V0Z" fill="white"/>
</mask>
<g mask="url(#mask26_2628_1174)">
<path d="M85.83 186.94V196.33H84.4L79.72 189.08V196.33H78.36V186.94H79.85L84.44 194.09V186.94H85.83Z" fill="#6D6E71"/>
</g>
<mask id="mask27_2628_1174" style="mask-type:luminance" maskUnits="userSpaceOnUse" x="0" y="0" width="381" height="216">
<path d="M380.3 0H0V215.52H380.3V0Z" fill="white"/>
</mask>
<g mask="url(#mask27_2628_1174)">
<path d="M96.64 194.02H98.32C97.88 194.81 97.28 195.42 96.53 195.86C95.78 196.29 94.95 196.51 94.05 196.51C92.74 196.51 91.6 196.03 90.65 195.07C89.7 194.11 89.23 192.95 89.23 191.61C89.23 190.26 89.7 189.11 90.64 188.17C91.58 187.23 92.72 186.76 94.06 186.76C95.97 186.76 97.41 187.62 98.39 189.34H96.74C95.98 188.46 95.1 188.02 94.09 188.02C93.12 188.02 92.3 188.37 91.63 189.08C90.95 189.78 90.61 190.63 90.61 191.63C90.61 192.62 90.95 193.47 91.63 194.2C92.31 194.92 93.12 195.29 94.06 195.29C95.07 195.26 95.93 194.85 96.64 194.02Z" fill="#6D6E71"/>
</g>
<mask id="mask28_2628_1174" style="mask-type:luminance" maskUnits="userSpaceOnUse" x="0" y="0" width="381" height="216">
<path d="M380.3 0H0V215.52H380.3V0Z" fill="white"/>
</mask>
<g mask="url(#mask28_2628_1174)">
<path d="M105.02 192.95V196.33H103.66V192.95L100.74 186.94H102.28L104.35 191.34L106.4 186.94H107.93L105.02 192.95Z" fill="#6D6E71"/>
</g>
<mask id="mask29_2628_1174" style="mask-type:luminance" maskUnits="userSpaceOnUse" x="0" y="0" width="381" height="216">
<path d="M380.3 0H0V215.52H380.3V0Z" fill="white"/>
</mask>
<g mask="url(#mask29_2628_1174)">
<path d="M126.34 186.94H124.97V196.34H126.34V186.94Z" fill="#6D6E71"/>
</g>
<mask id="mask30_2628_1174" style="mask-type:luminance" maskUnits="userSpaceOnUse" x="0" y="0" width="381" height="216">
<path d="M380.3 0H0V215.52H380.3V0Z" fill="white"/>
</mask>
<g mask="url(#mask30_2628_1174)">
<path d="M137.7 186.94V196.33H136.28L131.6 189.08V196.33H130.24V186.94H131.73L136.32 194.09V186.94H137.7Z" fill="#6D6E71"/>
</g>
<mask id="mask31_2628_1174" style="mask-type:luminance" maskUnits="userSpaceOnUse" x="0" y="0" width="381" height="216">
<path d="M380.3 0H0V215.52H380.3V0Z" fill="white"/>
</mask>
<g mask="url(#mask31_2628_1174)">
<path d="M143.98 188.2V196.33H142.6V188.2H140.8V186.94H145.77V188.2H143.98Z" fill="#6D6E71"/>
</g>
<mask id="mask32_2628_1174" style="mask-type:luminance" maskUnits="userSpaceOnUse" x="0" y="0" width="381" height="216">
<path d="M380.3 0H0V215.52H380.3V0Z" fill="white"/>
</mask>
<g mask="url(#mask32_2628_1174)">
<path d="M153.96 195.08V196.33H148.89V186.94H153.96V188.2H150.25V190.96H153.96V192.22H150.25V195.08H153.96Z" fill="#6D6E71"/>
</g>
<mask id="mask33_2628_1174" style="mask-type:luminance" maskUnits="userSpaceOnUse" x="0" y="0" width="381" height="216">
<path d="M380.3 0H0V215.52H380.3V0Z" fill="white"/>
</mask>
<g mask="url(#mask33_2628_1174)">
<path d="M160.75 191.65H166.68C166.66 193.04 166.19 194.2 165.26 195.13C164.33 196.05 163.19 196.52 161.83 196.52C160.5 196.52 159.36 196.05 158.43 195.1C157.5 194.16 157.03 193.01 157.03 191.66C157.03 190.29 157.49 189.13 158.42 188.18C159.35 187.23 160.48 186.76 161.82 186.76C162.7 186.76 163.52 186.99 164.27 187.44C165.02 187.9 165.61 188.51 166.03 189.29H164.44C163.65 188.44 162.8 188.01 161.88 188.01C160.92 188.01 160.11 188.37 159.43 189.08C158.75 189.79 158.42 190.65 158.42 191.66C158.42 192.64 158.76 193.48 159.45 194.2C160.14 194.91 160.95 195.27 161.9 195.27C162.72 195.27 163.46 194.99 164.13 194.42C164.54 194.07 164.88 193.57 165.14 192.91H160.76V191.65H160.75Z" fill="#6D6E71"/>
</g>
<mask id="mask34_2628_1174" style="mask-type:luminance" maskUnits="userSpaceOnUse" x="0" y="0" width="381" height="216">
<path d="M380.3 0H0V215.52H380.3V0Z" fill="white"/>
</mask>
<g mask="url(#mask34_2628_1174)">
<path d="M173.66 192.84L176.3 196.33H174.58L171.45 191.96V196.33H170.08V186.93H172.98C174.1 186.93 174.94 187.2 175.5 187.73C176.06 188.27 176.35 189 176.35 189.94C176.35 191.03 175.95 191.82 175.17 192.32C174.78 192.59 174.28 192.76 173.66 192.84ZM171.45 188.2V191.78H172.39C174.12 191.78 174.98 191.17 174.98 189.95C174.98 189.42 174.79 189 174.41 188.68C174.03 188.36 173.53 188.2 172.9 188.2H171.45Z" fill="#6D6E71"/>
</g>
<mask id="mask35_2628_1174" style="mask-type:luminance" maskUnits="userSpaceOnUse" x="0" y="0" width="381" height="216">
<path d="M380.3 0H0V215.52H380.3V0Z" fill="white"/>
</mask>
<g mask="url(#mask35_2628_1174)">
<path d="M181.2 186.94H179.83V196.34H181.2V186.94Z" fill="#6D6E71"/>
</g>
<mask id="mask36_2628_1174" style="mask-type:luminance" maskUnits="userSpaceOnUse" x="0" y="0" width="381" height="216">
<path d="M380.3 0H0V215.52H380.3V0Z" fill="white"/>
</mask>
<g mask="url(#mask36_2628_1174)">
<path d="M187.5 188.2V196.33H186.11V188.2H184.31V186.94H189.28V188.2H187.5Z" fill="#6D6E71"/>
</g>
<mask id="mask37_2628_1174" style="mask-type:luminance" maskUnits="userSpaceOnUse" x="0" y="0" width="381" height="216">
<path d="M380.3 0H0V215.52H380.3V0Z" fill="white"/>
</mask>
<g mask="url(#mask37_2628_1174)">
<path d="M196.13 192.95V196.33H194.76V192.95L191.85 186.94H193.38L195.45 191.34L197.51 186.94H199.03L196.13 192.95Z" fill="#6D6E71"/>
</g>
<mask id="mask38_2628_1174" style="mask-type:luminance" maskUnits="userSpaceOnUse" x="0" y="0" width="381" height="216">
<path d="M380.3 0H0V215.52H380.3V0Z" fill="white"/>
</mask>
<g mask="url(#mask38_2628_1174)">
<path d="M218.79 192.63H217.44V196.34H216.07V186.94H219.34C220.15 186.94 220.81 187.2 221.33 187.73C221.85 188.26 222.11 188.93 222.11 189.74C222.11 190.52 221.87 191.17 221.38 191.7C221.06 192.05 220.71 192.29 220.32 192.43C219.93 192.56 219.42 192.63 218.79 192.63ZM217.44 188.2V191.37H218.85C219.43 191.37 219.89 191.22 220.22 190.93C220.55 190.64 220.72 190.24 220.72 189.73C220.72 188.71 220.09 188.2 218.83 188.2H217.44Z" fill="#6D6E71"/>
</g>
<mask id="mask39_2628_1174" style="mask-type:luminance" maskUnits="userSpaceOnUse" x="0" y="0" width="381" height="216">
<path d="M380.3 0H0V215.52H380.3V0Z" fill="white"/>
</mask>
<g mask="url(#mask39_2628_1174)">
<path d="M228.95 192.84L231.59 196.33H229.87L226.74 191.96V196.33H225.37V186.93H228.27C229.39 186.93 230.23 187.2 230.79 187.73C231.35 188.27 231.64 189 231.64 189.94C231.64 191.03 231.24 191.82 230.46 192.32C230.06 192.59 229.56 192.76 228.95 192.84ZM226.74 188.2V191.78H227.68C229.41 191.78 230.27 191.17 230.27 189.95C230.27 189.42 230.08 189 229.7 188.68C229.32 188.36 228.82 188.2 228.19 188.2H226.74Z" fill="#6D6E71"/>
</g>
<mask id="mask40_2628_1174" style="mask-type:luminance" maskUnits="userSpaceOnUse" x="0" y="0" width="381" height="216">
<path d="M380.3 0H0V215.52H380.3V0Z" fill="white"/>
</mask>
<g mask="url(#mask40_2628_1174)">
<path d="M239.53 186.75C240.89 186.75 242.05 187.22 242.99 188.17C243.94 189.12 244.42 190.27 244.42 191.64C244.42 192.98 243.94 194.13 242.99 195.08C242.04 196.03 240.88 196.51 239.53 196.51C238.18 196.51 237.02 196.03 236.07 195.08C235.12 194.12 234.64 192.98 234.64 191.64C234.64 190.28 235.11 189.12 236.06 188.17C237.01 187.23 238.17 186.75 239.53 186.75ZM239.53 195.26C240.53 195.26 241.36 194.91 242.03 194.22C242.7 193.52 243.04 192.66 243.04 191.63C243.04 190.62 242.7 189.76 242.03 189.06C241.35 188.36 240.52 188.01 239.54 188.01C238.55 188.01 237.72 188.36 237.05 189.06C236.37 189.76 236.04 190.62 236.04 191.63C236.04 192.65 236.38 193.51 237.05 194.22C237.71 194.91 238.54 195.26 239.53 195.26Z" fill="#6D6E71"/>
</g>
<mask id="mask41_2628_1174" style="mask-type:luminance" maskUnits="userSpaceOnUse" x="0" y="0" width="381" height="216">
<path d="M380.3 0H0V215.52H380.3V0Z" fill="white"/>
</mask>
<g mask="url(#mask41_2628_1174)">
<path d="M249.21 192.27V196.33H247.84V186.94H252.57V188.2H249.21V191.02H252.57V192.27H249.21Z" fill="#6D6E71"/>
</g>
<mask id="mask42_2628_1174" style="mask-type:luminance" maskUnits="userSpaceOnUse" x="0" y="0" width="381" height="216">
<path d="M380.3 0H0V215.52H380.3V0Z" fill="white"/>
</mask>
<g mask="url(#mask42_2628_1174)">
<path d="M260.98 195.08V196.33H255.91V186.94H260.98V188.2H257.28V190.96H260.98V192.22H257.28V195.08H260.98Z" fill="#6D6E71"/>
</g>
<mask id="mask43_2628_1174" style="mask-type:luminance" maskUnits="userSpaceOnUse" x="0" y="0" width="381" height="216">
<path d="M380.3 0H0V215.52H380.3V0Z" fill="white"/>
</mask>
<g mask="url(#mask43_2628_1174)">
<path d="M269.43 189.37H268.03C268 188.96 267.87 188.63 267.64 188.38C267.4 188.13 267.11 188.01 266.77 188.01C266.43 188.01 266.14 188.14 265.88 188.4C265.63 188.66 265.5 188.96 265.5 189.31C265.5 189.68 265.61 189.96 265.82 190.15C266.04 190.34 266.44 190.52 267.04 190.69C267.64 190.86 268.07 191.02 268.35 191.18C268.63 191.34 268.87 191.58 269.09 191.89C269.42 192.36 269.58 192.9 269.58 193.52C269.58 194.37 269.3 195.09 268.75 195.66C268.2 196.23 267.51 196.52 266.68 196.52C265.83 196.52 265.14 196.24 264.6 195.69C264.05 195.14 263.77 194.43 263.75 193.56H265.1C265.21 194.7 265.74 195.27 266.69 195.27C267.12 195.27 267.48 195.12 267.77 194.82C268.06 194.52 268.21 194.15 268.21 193.71C268.21 193.04 267.82 192.58 267.04 192.32L266.7 192.21L266.31 192.09C265.77 191.92 265.43 191.79 265.27 191.71C265.11 191.62 264.94 191.48 264.76 191.27C264.34 190.8 264.12 190.22 264.12 189.54C264.12 188.74 264.38 188.08 264.89 187.56C265.4 187.04 266.05 186.78 266.83 186.78C267.56 186.78 268.17 187.02 268.65 187.5C269.13 187.98 269.4 188.59 269.43 189.37Z" fill="#6D6E71"/>
</g>
<mask id="mask44_2628_1174" style="mask-type:luminance" maskUnits="userSpaceOnUse" x="0" y="0" width="381" height="216">
<path d="M380.3 0H0V215.52H380.3V0Z" fill="white"/>
</mask>
<g mask="url(#mask44_2628_1174)">
<path d="M277.93 189.37H276.53C276.5 188.96 276.37 188.63 276.13 188.38C275.9 188.13 275.61 188.01 275.26 188.01C274.92 188.01 274.63 188.14 274.37 188.4C274.12 188.66 273.99 188.96 273.99 189.31C273.99 189.68 274.1 189.96 274.31 190.15C274.53 190.34 274.93 190.52 275.53 190.69C276.13 190.86 276.56 191.02 276.84 191.18C277.12 191.34 277.36 191.58 277.58 191.89C277.91 192.36 278.07 192.9 278.07 193.52C278.07 194.37 277.79 195.09 277.24 195.66C276.69 196.23 276 196.52 275.17 196.52C274.32 196.52 273.63 196.24 273.09 195.69C272.54 195.14 272.26 194.43 272.24 193.56H273.59C273.7 194.7 274.23 195.27 275.18 195.27C275.61 195.27 275.97 195.12 276.26 194.82C276.55 194.52 276.7 194.15 276.7 193.71C276.7 193.04 276.31 192.58 275.53 192.32L275.19 192.21L274.8 192.09C274.26 191.92 273.92 191.79 273.76 191.71C273.6 191.62 273.43 191.48 273.25 191.27C272.83 190.8 272.61 190.22 272.61 189.54C272.61 188.74 272.87 188.08 273.38 187.56C273.89 187.04 274.54 186.78 275.32 186.78C276.05 186.78 276.66 187.02 277.14 187.5C277.62 187.98 277.89 188.59 277.93 189.37Z" fill="#6D6E71"/>
</g>
<mask id="mask45_2628_1174" style="mask-type:luminance" maskUnits="userSpaceOnUse" x="0" y="0" width="381" height="216">
<path d="M380.3 0H0V215.52H380.3V0Z" fill="white"/>
</mask>
<g mask="url(#mask45_2628_1174)">
<path d="M282.89 186.94H281.52V196.34H282.89V186.94Z" fill="#6D6E71"/>
</g>
<mask id="mask46_2628_1174" style="mask-type:luminance" maskUnits="userSpaceOnUse" x="0" y="0" width="381" height="216">
<path d="M380.3 0H0V215.52H380.3V0Z" fill="white"/>
</mask>
<g mask="url(#mask46_2628_1174)">
<path d="M291.19 186.75C292.55 186.75 293.71 187.22 294.66 188.17C295.61 189.12 296.08 190.27 296.08 191.64C296.08 192.98 295.6 194.13 294.65 195.08C293.7 196.03 292.54 196.51 291.19 196.51C289.84 196.51 288.68 196.03 287.73 195.08C286.78 194.12 286.3 192.98 286.3 191.64C286.3 190.28 286.77 189.12 287.72 188.17C288.68 187.23 289.83 186.75 291.19 186.75ZM291.19 195.26C292.19 195.26 293.02 194.91 293.69 194.22C294.36 193.52 294.7 192.66 294.7 191.63C294.7 190.62 294.36 189.76 293.69 189.06C293.01 188.36 292.18 188.01 291.2 188.01C290.21 188.01 289.38 188.36 288.71 189.06C288.03 189.76 287.69 190.62 287.69 191.63C287.69 192.65 288.03 193.51 288.71 194.22C289.38 194.91 290.21 195.26 291.19 195.26Z" fill="#6D6E71"/>
</g>
<mask id="mask47_2628_1174" style="mask-type:luminance" maskUnits="userSpaceOnUse" x="0" y="0" width="381" height="216">
<path d="M380.3 0H0V215.52H380.3V0Z" fill="white"/>
</mask>
<g mask="url(#mask47_2628_1174)">
<path d="M306.97 186.94V196.33H305.55L300.87 189.08V196.33H299.5V186.94H301L305.59 194.09V186.94H306.97Z" fill="#6D6E71"/>
</g>
<mask id="mask48_2628_1174" style="mask-type:luminance" maskUnits="userSpaceOnUse" x="0" y="0" width="381" height="216">
<path d="M380.3 0H0V215.52H380.3V0Z" fill="white"/>
</mask>
<g mask="url(#mask48_2628_1174)">
<path d="M314.72 186.94L318.28 196.34H316.83L315.79 193.56H312.41L311.37 196.34H309.92L313.49 186.94H314.72ZM312.9 192.3H315.31L314.11 188.72L312.9 192.3Z" fill="#6D6E71"/>
</g>
<mask id="mask49_2628_1174" style="mask-type:luminance" maskUnits="userSpaceOnUse" x="0" y="0" width="381" height="216">
<path d="M380.3 0H0V215.52H380.3V0Z" fill="white"/>
</mask>
<g mask="url(#mask49_2628_1174)">
<path d="M325.86 195.08V196.33H321.24V186.94H322.6V195.08H325.86Z" fill="#6D6E71"/>
</g>
<mask id="mask50_2628_1174" style="mask-type:luminance" maskUnits="userSpaceOnUse" x="0" y="0" width="381" height="216">
<path d="M380.3 0H0V215.52H380.3V0Z" fill="white"/>
</mask>
<g mask="url(#mask50_2628_1174)">
<path d="M330.42 186.94H329.05V196.34H330.42V186.94Z" fill="#6D6E71"/>
</g>
<mask id="mask51_2628_1174" style="mask-type:luminance" maskUnits="userSpaceOnUse" x="0" y="0" width="381" height="216">
<path d="M380.3 0H0V215.52H380.3V0Z" fill="white"/>
</mask>
<g mask="url(#mask51_2628_1174)">
<path d="M339.22 189.37H337.82C337.79 188.96 337.66 188.63 337.43 188.38C337.19 188.13 336.9 188.01 336.56 188.01C336.22 188.01 335.93 188.14 335.67 188.4C335.42 188.66 335.29 188.96 335.29 189.31C335.29 189.68 335.4 189.96 335.61 190.15C335.83 190.34 336.23 190.52 336.83 190.69C337.43 190.86 337.86 191.02 338.14 191.18C338.42 191.34 338.66 191.58 338.88 191.89C339.21 192.36 339.37 192.9 339.37 193.52C339.37 194.37 339.09 195.09 338.54 195.66C337.99 196.23 337.3 196.52 336.47 196.52C335.62 196.52 334.93 196.24 334.39 195.69C333.84 195.14 333.56 194.43 333.54 193.56H334.89C335 194.7 335.53 195.27 336.48 195.27C336.91 195.27 337.27 195.12 337.56 194.82C337.85 194.52 338 194.15 338 193.71C338 193.04 337.61 192.58 336.83 192.32L336.49 192.21L336.1 192.09C335.56 191.92 335.22 191.79 335.06 191.71C334.9 191.62 334.73 191.48 334.55 191.27C334.13 190.8 333.91 190.22 333.91 189.54C333.91 188.74 334.17 188.08 334.68 187.56C335.19 187.04 335.84 186.78 336.62 186.78C337.35 186.78 337.96 187.02 338.44 187.5C338.92 187.98 339.19 188.59 339.22 189.37Z" fill="#6D6E71"/>
</g>
<mask id="mask52_2628_1174" style="mask-type:luminance" maskUnits="userSpaceOnUse" x="0" y="0" width="381" height="216">
<path d="M380.3 0H0V215.52H380.3V0Z" fill="white"/>
</mask>
<g mask="url(#mask52_2628_1174)">
<path d="M352.78 186.94V196.33H351.41V188.4L348.21 196.33H347.38L344.18 188.4V196.33H342.82V186.94H344.97L347.79 194.14L350.62 186.94H352.78Z" fill="#6D6E71"/>
</g>
<mask id="mask53_2628_1174" style="mask-type:luminance" maskUnits="userSpaceOnUse" x="0" y="0" width="381" height="216">
<path d="M380.3 0H0V215.52H380.3V0Z" fill="white"/>
</mask>
<g mask="url(#mask53_2628_1174)">
<path d="M117.12 191.66C117.12 192.65 116.32 193.45 115.33 193.45C114.34 193.45 113.54 192.65 113.54 191.66C113.54 190.67 114.34 189.87 115.33 189.87C116.32 189.87 117.12 190.67 117.12 191.66Z" fill="#00ACA1"/>
</g>
<mask id="mask54_2628_1174" style="mask-type:luminance" maskUnits="userSpaceOnUse" x="0" y="0" width="381" height="216">
<path d="M380.3 0H0V215.52H380.3V0Z" fill="white"/>
</mask>
<g mask="url(#mask54_2628_1174)">
<path d="M208.52 191.66C208.52 192.65 207.72 193.45 206.73 193.45C205.74 193.45 204.94 192.65 204.94 191.66C204.94 190.67 205.74 189.87 206.73 189.87C207.72 189.87 208.52 190.67 208.52 191.66Z" fill="#00ACA1"/>
</g>
</g>
</g>
<defs>
<clipPath id="clip0_2628_1174">
<rect width="380.3" height="215.52" fill="white"/>
</clipPath>
</defs>
</svg>
