<svg width="237" height="110" viewBox="0 0 237 110" fill="none" xmlns="http://www.w3.org/2000/svg">
<g clip-path="url(#clip0_244_36)">
<mask id="mask0_244_36" style="mask-type:luminance" maskUnits="userSpaceOnUse" x="0" y="0" width="237" height="110">
<path d="M0 -6.10352e-05H236.65V109.94H0V-6.10352e-05Z" fill="white"/>
</mask>
<g mask="url(#mask0_244_36)">
<path d="M116.584 66.0219C115.165 64.6869 114.075 63.1039 113.312 61.2769C112.548 59.4509 112.166 57.4449 112.166 55.2629C112.166 53.4099 112.413 51.7049 112.903 50.1499C113.393 48.5979 114.131 47.0969 115.111 45.6519C116.094 44.2069 117.332 42.7879 118.833 41.3969C120.334 40.0059 122.093 38.5759 124.109 37.1039C121.71 34.3209 119.882 31.7329 118.629 29.3309C117.373 26.9319 116.747 24.5319 116.747 22.1329C116.747 20.2789 117.074 18.5609 117.73 16.9789C118.384 15.3959 119.31 14.0199 120.51 12.8459C121.71 11.6749 123.17 10.7609 124.888 10.1069C125.273 9.9599 125.67 9.8349 126.073 9.7209H17.5044V68.5459H120.258C118.872 67.8659 117.647 67.0249 116.584 66.0219Z" fill="#526081"/>
<path d="M122.269 47.8189C120.88 49.6749 120.183 51.8569 120.183 54.3639C120.183 57.1459 121.097 59.4079 122.925 61.1539C124.75 62.8999 127.3 63.7729 130.573 63.7729C132.755 63.7729 134.935 63.2389 137.117 62.1769C139.298 61.1129 141.291 59.5459 143.09 57.4729L128.61 42.0119C125.774 44.0279 123.66 45.9659 122.269 47.8189Z" fill="#13ACA1"/>
<path d="M134.998 9.7209C136.507 10.1499 137.867 10.7969 139.066 11.6779V20.4949C139.066 20.4949 136.63 17.4059 135.767 16.4859C134.485 15.1249 132.918 14.4409 131.065 14.4409C128.99 14.4409 127.3 15.0839 125.993 16.3639C124.683 17.6469 124.027 19.3239 124.027 21.3949C124.027 23.4699 124.659 25.3829 125.541 27.3269C128.858 34.6359 147.098 52.5639 147.098 52.5639C150.533 48.0919 152.825 43.0739 153.969 37.5119H147.261V31.8679H164.606V37.5119H159.697C158.824 41.1109 157.65 44.4799 156.18 47.6149C154.707 50.7519 152.933 53.7919 150.86 56.7349L155.846 62.0419C158.339 64.6949 161.818 66.1999 165.458 66.1999H167.035V68.5459H214.378V9.7209H134.998Z" fill="#13ACA1"/>
<path d="M181.228 40.6478L184.898 29.3868L188.569 40.6478H181.228ZM202.191 52.8238C201.366 50.4078 200.418 47.6598 199.353 44.5778C198.286 41.5038 197.21 38.3598 196.127 35.1448C195.042 31.9288 193.987 28.7738 192.962 25.6768C191.938 22.5878 191.044 19.8398 190.282 17.4318L189.874 16.1408H175.564V24.1248H178.177L167.115 55.3148H163.13V63.3008H179.988V55.3148H176.472L178.688 48.6318H190.878C191.719 51.1068 192.397 53.1618 192.913 54.7938C193.514 56.6968 193.974 58.1768 194.296 59.2418C194.612 60.2818 194.866 61.1758 195.063 61.9248L195.426 63.3008H205.777L202.191 52.8238Z" fill="white"/>
<path d="M61.0704 16.1408H25.3804V29.3748H33.9674V24.1248H38.5404V55.3158H34.3744V63.3008H47.9714V24.1248H61.0704V16.1408Z" fill="white"/>
<path d="M87.4102 40.1656V48.5716H94.8522C93.9562 50.4766 92.7632 51.9896 91.2942 53.0876C89.2282 54.6276 86.6672 55.3766 83.4652 55.3766C81.4292 55.3766 79.4972 54.9996 77.7212 54.2536C75.9502 53.5096 74.3922 52.4446 73.0862 51.0836C71.7712 49.7166 70.7112 48.0486 69.9392 46.1236C69.1652 44.1986 68.7732 42.0446 68.7732 39.7196C68.7732 37.3566 69.1652 35.1806 69.9382 33.2566C70.7082 31.3426 71.7722 29.6886 73.0992 28.3436C74.4312 26.9946 75.9992 25.9316 77.7592 25.1836C79.5112 24.4406 81.4312 24.0626 83.4652 24.0626C86.6132 24.0626 89.1342 24.8336 91.1732 26.4186C93.2042 28.0006 94.7052 30.3966 95.6362 33.5436L96.0272 34.8686H103.18V16.7436H94.7142V18.5776C91.3792 16.3966 87.6092 15.2956 83.4652 15.2956C79.9362 15.2956 76.6502 15.9216 73.6952 17.1586C70.7392 18.3976 68.1582 20.1436 66.0212 22.3456C63.8902 24.5416 62.2072 27.1486 61.0172 30.0926C59.8252 33.0356 59.2212 36.2746 59.2212 39.7196C59.2212 43.1246 59.8252 46.3506 61.0142 49.3106C62.2052 52.2806 63.8912 54.8906 66.0262 57.0686C68.1572 59.2456 70.7332 60.9876 73.6852 62.2466C76.6392 63.5046 79.9292 64.1436 83.4652 64.1436C86.4632 64.1436 89.2212 63.6526 91.6612 62.6866C93.0162 62.1506 94.3592 61.4336 95.6812 60.5456V63.3006H104.267V40.1656H87.4102Z" fill="white"/>
<path d="M17.5044 77.6367H43.0744" stroke="#526081" stroke-width="5" stroke-miterlimit="10"/>
<path d="M188.809 77.6367H214.379" stroke="#526081" stroke-width="5" stroke-miterlimit="10"/>
<path d="M20.7107 95.4489V96.1929H17.6987V90.6119H20.7107V91.3649H18.5097V93.0039H20.7107V93.7499H18.5097V95.4489H20.7107Z" fill="#6D6E71"/>
<path d="M23.6294 93.7824V96.1924H22.8174V90.6124H25.6294V91.3654H23.6294V93.0384H25.6294V93.7824H23.6294Z" fill="#6D6E71"/>
<path d="M28.4228 93.7824V96.1924H27.6108V90.6124H30.4228V91.3654H28.4228V93.0384H30.4228V93.7824H28.4228Z" fill="#6D6E71"/>
<path d="M33.2163 96.1929H32.4043V90.6119H33.2163V96.1929Z" fill="#6D6E71"/>
<path d="M39.649 94.8208H40.645C40.383 95.2888 40.028 95.6528 39.582 95.9128C39.136 96.1708 38.645 96.3008 38.11 96.3008C37.329 96.3008 36.656 96.0158 36.093 95.4438C35.53 94.8728 35.248 94.1868 35.248 93.3888C35.248 92.5878 35.527 91.9048 36.085 91.3438C36.643 90.7838 37.32 90.5038 38.118 90.5038C39.25 90.5038 40.107 91.0128 40.687 92.0348H39.708C39.256 91.5098 38.732 91.2478 38.135 91.2478C37.56 91.2478 37.073 91.4568 36.671 91.8758C36.269 92.2928 36.068 92.7988 36.068 93.3888C36.068 93.9758 36.27 94.4828 36.675 94.9128C37.079 95.3428 37.56 95.5578 38.118 95.5578C38.715 95.5578 39.226 95.3118 39.649 94.8208Z" fill="#6D6E71"/>
<path d="M43.4551 96.1929H42.6431V90.6119H43.4551V96.1929Z" fill="#6D6E71"/>
<path d="M48.7845 95.4489V96.1929H45.7725V90.6119H48.7845V91.3649H46.5835V93.0039H48.7845V93.7499H46.5835V95.4489H48.7845Z" fill="#6D6E71"/>
<path d="M55.3266 90.6119V96.1929H54.4806L51.7026 91.8829V96.1929H50.8916V90.6119H51.7786L54.5056 94.8619V90.6119H55.3266Z" fill="#6D6E71"/>
<path d="M61.7506 94.8208H62.7466C62.4846 95.2888 62.1296 95.6528 61.6836 95.9128C61.2376 96.1708 60.7466 96.3008 60.2116 96.3008C59.4306 96.3008 58.7576 96.0158 58.1946 95.4438C57.6316 94.8728 57.3496 94.1868 57.3496 93.3888C57.3496 92.5878 57.6286 91.9048 58.1866 91.3438C58.7446 90.7838 59.4216 90.5038 60.2196 90.5038C61.3516 90.5038 62.2086 91.0128 62.7886 92.0348H61.8096C61.3576 91.5098 60.8336 91.2478 60.2366 91.2478C59.6616 91.2478 59.1746 91.4568 58.7726 91.8758C58.3706 92.2928 58.1696 92.7988 58.1696 93.3888C58.1696 93.9758 58.3716 94.4828 58.7766 94.9128C59.1806 95.3428 59.6616 95.5578 60.2196 95.5578C60.8166 95.5578 61.3276 95.3118 61.7506 94.8208Z" fill="#6D6E71"/>
<path d="M66.7291 94.1849V96.1929H65.9171V94.1849L64.1851 90.6119H65.0971L66.3271 93.2299L67.5491 90.6119H68.4521L66.7291 94.1849Z" fill="#6D6E71"/>
<path d="M79.3872 96.1929H78.5752V90.6119H79.3872V96.1929Z" fill="#6D6E71"/>
<path d="M86.1386 90.6119V96.1929H85.2926L82.5146 91.8829V96.1929H81.7036V90.6119H82.5906L85.3176 94.8619V90.6119H86.1386Z" fill="#6D6E71"/>
<path d="M89.8685 91.3649V96.1929H89.0475V91.3649H87.9775V90.6119H90.9305V91.3649H89.8685Z" fill="#6D6E71"/>
<path d="M95.7913 95.4489V96.1929H92.7793V90.6119H95.7913V91.3649H93.5903V93.0039H95.7913V93.7499H93.5903V95.4489H95.7913Z" fill="#6D6E71"/>
<path d="M99.8242 93.4143H103.346C103.336 94.2413 103.055 94.9273 102.506 95.4783C101.956 96.0263 101.276 96.3013 100.469 96.3013C99.6762 96.3013 99.0032 96.0213 98.4472 95.4603C97.8922 94.9003 97.6152 94.2173 97.6152 93.4143C97.6152 92.6003 97.8912 91.9123 98.4432 91.3493C98.9952 90.7853 99.6682 90.5043 100.46 90.5043C100.984 90.5043 101.47 90.6393 101.916 90.9083C102.362 91.1793 102.711 91.5453 102.962 92.0093H102.016C101.547 91.5023 101.04 91.2473 100.493 91.2473C99.9242 91.2473 99.4392 91.4593 99.0382 91.8833C98.6362 92.3073 98.4352 92.8183 98.4352 93.4143C98.4352 93.9953 98.6392 94.4973 99.0462 94.9223C99.4532 95.3443 99.9382 95.5573 100.502 95.5573C100.987 95.5573 101.427 95.3893 101.824 95.0553C102.069 94.8483 102.269 94.5503 102.427 94.1603H99.8242V93.4143Z" fill="#6D6E71"/>
<path d="M106.182 91.3649V93.4899H106.743C107.769 93.4899 108.283 93.1269 108.283 92.4029C108.283 92.0909 108.169 91.8399 107.943 91.6479C107.718 91.4589 107.418 91.3649 107.044 91.3649H106.182ZM107.495 94.1179L109.061 96.1929H108.04L106.182 93.5979V96.1929H105.37V90.6119H107.094C107.758 90.6119 108.257 90.7709 108.592 91.0889C108.926 91.4069 109.094 91.8449 109.094 92.4029C109.094 93.0489 108.859 93.5209 108.391 93.8169C108.157 93.9669 107.858 94.0679 107.495 94.1179Z" fill="#6D6E71"/>
<path d="M111.97 96.1929H111.158V90.6119H111.97V96.1929Z" fill="#6D6E71"/>
<path d="M115.71 91.3649V96.1929H114.889V91.3649H113.819V90.6119H116.772V91.3649H115.71Z" fill="#6D6E71"/>
<path d="M120.837 94.1849V96.1929H120.025V94.1849L118.293 90.6119H119.205L120.435 93.2299L121.657 90.6119H122.56L120.837 94.1849Z" fill="#6D6E71"/>
<path d="M133.496 91.3649V93.2479H134.333C134.679 93.2479 134.95 93.1609 135.149 92.9879C135.347 92.8149 135.446 92.5779 135.446 92.2769C135.446 91.6679 135.072 91.3649 134.325 91.3649H133.496ZM134.299 93.9919H133.496V96.1929H132.684V90.6119H134.625C135.106 90.6119 135.498 90.7669 135.805 91.0799C136.112 91.3919 136.266 91.7909 136.266 92.2769C136.266 92.7409 136.12 93.1269 135.83 93.4389C135.641 93.6469 135.431 93.7899 135.203 93.8709C134.975 93.9519 134.673 93.9919 134.299 93.9919Z" fill="#6D6E71"/>
<path d="M139.017 91.3649V93.4899H139.578C140.604 93.4899 141.118 93.1269 141.118 92.4029C141.118 92.0909 141.004 91.8399 140.778 91.6479C140.553 91.4589 140.253 91.3649 139.879 91.3649H139.017ZM140.33 94.1179L141.896 96.1929H140.875L139.017 93.5979V96.1929H138.205V90.6119H139.929C140.593 90.6119 141.092 90.7709 141.427 91.0889C141.761 91.4069 141.929 91.8449 141.929 92.4029C141.929 93.0489 141.694 93.5209 141.226 93.8169C140.992 93.9669 140.693 94.0679 140.33 94.1179Z" fill="#6D6E71"/>
<path d="M146.613 95.5573C147.204 95.5573 147.7 95.3513 148.098 94.9383C148.497 94.5243 148.696 94.0123 148.696 93.3983C148.696 92.7953 148.496 92.2873 148.094 91.8703C147.693 91.4553 147.199 91.2473 146.613 91.2473C146.027 91.2473 145.534 91.4553 145.133 91.8703C144.731 92.2873 144.53 92.7953 144.53 93.3983C144.53 94.0063 144.731 94.5173 145.133 94.9343C145.534 95.3493 146.027 95.5573 146.613 95.5573ZM146.613 90.5043C147.422 90.5043 148.108 90.7853 148.671 91.3483C149.235 91.9123 149.517 92.5983 149.517 93.4073C149.517 94.2053 149.234 94.8853 148.668 95.4523C148.101 96.0173 147.416 96.3013 146.613 96.3013C145.81 96.3013 145.125 96.0173 144.559 95.4523C143.992 94.8853 143.71 94.2053 143.71 93.4073C143.71 92.5983 143.991 91.9123 144.555 91.3483C145.118 90.7853 145.804 90.5043 146.613 90.5043Z" fill="#6D6E71"/>
<path d="M152.361 93.7824V96.1924H151.549V90.6124H154.361V91.3654H152.361V93.0384H154.361V93.7824H152.361Z" fill="#6D6E71"/>
<path d="M159.355 95.4489V96.1929H156.343V90.6119H159.355V91.3649H157.154V93.0039H159.355V93.7499H157.154V95.4489H159.355Z" fill="#6D6E71"/>
<path d="M164.374 92.0598H163.545C163.528 91.8138 163.451 91.6178 163.311 91.4698C163.172 91.3218 162.998 91.2478 162.792 91.2478C162.591 91.2478 162.416 91.3248 162.265 91.4768C162.114 91.6298 162.04 91.8108 162.04 92.0168C162.04 92.2348 162.104 92.4008 162.232 92.5148C162.36 92.6308 162.601 92.7368 162.956 92.8378C163.31 92.9368 163.569 93.0348 163.734 93.1308C163.898 93.2248 164.045 93.3648 164.173 93.5498C164.368 93.8278 164.466 94.1508 164.466 94.5188C164.466 95.0258 164.301 95.4508 163.972 95.7918C163.643 96.1308 163.233 96.3008 162.742 96.3008C162.24 96.3008 161.827 96.1368 161.503 95.8078C161.18 95.4798 161.013 95.0568 161.001 94.5438H161.805C161.872 95.2198 162.187 95.5568 162.75 95.5568C163.007 95.5568 163.222 95.4668 163.395 95.2878C163.568 95.1108 163.654 94.8908 163.654 94.6268C163.654 94.2318 163.423 93.9558 162.959 93.7998L162.759 93.7318L162.524 93.6578C162.207 93.5568 162 93.4808 161.905 93.4318C161.81 93.3818 161.71 93.2948 161.604 93.1718C161.353 92.8938 161.227 92.5488 161.227 92.1428C161.227 91.6678 161.38 91.2758 161.684 90.9678C161.987 90.6568 162.371 90.5038 162.834 90.5038C163.269 90.5038 163.629 90.6458 163.914 90.9328C164.198 91.2198 164.351 91.5958 164.374 92.0598Z" fill="#6D6E71"/>
<path d="M169.419 92.0598H168.59C168.573 91.8138 168.496 91.6178 168.356 91.4698C168.217 91.3218 168.043 91.2478 167.837 91.2478C167.636 91.2478 167.461 91.3248 167.31 91.4768C167.159 91.6298 167.085 91.8108 167.085 92.0168C167.085 92.2348 167.149 92.4008 167.277 92.5148C167.405 92.6308 167.646 92.7368 168.001 92.8378C168.355 92.9368 168.614 93.0348 168.779 93.1308C168.943 93.2248 169.09 93.3648 169.218 93.5498C169.413 93.8278 169.511 94.1508 169.511 94.5188C169.511 95.0258 169.346 95.4508 169.017 95.7918C168.688 96.1308 168.278 96.3008 167.787 96.3008C167.285 96.3008 166.872 96.1368 166.548 95.8078C166.225 95.4798 166.058 95.0568 166.046 94.5438H166.85C166.917 95.2198 167.232 95.5568 167.795 95.5568C168.052 95.5568 168.267 95.4668 168.44 95.2878C168.613 95.1108 168.699 94.8908 168.699 94.6268C168.699 94.2318 168.468 93.9558 168.004 93.7998L167.804 93.7318L167.569 93.6578C167.252 93.5568 167.045 93.4808 166.95 93.4318C166.855 93.3818 166.755 93.2948 166.649 93.1718C166.398 92.8938 166.272 92.5488 166.272 92.1428C166.272 91.6678 166.425 91.2758 166.729 90.9678C167.032 90.6568 167.416 90.5038 167.879 90.5038C168.314 90.5038 168.674 90.6458 168.959 90.9328C169.243 91.2198 169.396 91.5958 169.419 92.0598Z" fill="#6D6E71"/>
<path d="M172.361 96.1929H171.549V90.6119H172.361V96.1929Z" fill="#6D6E71"/>
<path d="M177.298 95.5573C177.889 95.5573 178.385 95.3513 178.783 94.9383C179.182 94.5243 179.381 94.0123 179.381 93.3983C179.381 92.7953 179.181 92.2873 178.779 91.8703C178.378 91.4553 177.884 91.2473 177.298 91.2473C176.712 91.2473 176.219 91.4553 175.818 91.8703C175.416 92.2873 175.215 92.7953 175.215 93.3983C175.215 94.0063 175.416 94.5173 175.818 94.9343C176.219 95.3493 176.712 95.5573 177.298 95.5573ZM177.298 90.5043C178.107 90.5043 178.793 90.7853 179.356 91.3483C179.92 91.9123 180.202 92.5983 180.202 93.4073C180.202 94.2053 179.919 94.8853 179.353 95.4523C178.786 96.0173 178.101 96.3013 177.298 96.3013C176.495 96.3013 175.81 96.0173 175.244 95.4523C174.677 94.8853 174.395 94.2053 174.395 93.4073C174.395 92.5983 174.676 91.9123 175.24 91.3483C175.803 90.7853 176.489 90.5043 177.298 90.5043Z" fill="#6D6E71"/>
<path d="M186.668 90.6119V96.1929H185.822L183.044 91.8829V96.1929H182.233V90.6119H183.12L185.847 94.8619V90.6119H186.668Z" fill="#6D6E71"/>
<path d="M190.19 93.8004H191.621L190.909 91.6734L190.19 93.8004ZM191.27 90.6124L193.387 96.1924H192.524L191.905 94.5444H189.898L189.278 96.1924H188.416L190.533 90.6124H191.27Z" fill="#6D6E71"/>
<path d="M197.886 95.4489V96.1929H195.142V90.6119H195.953V95.4489H197.886Z" fill="#6D6E71"/>
<path d="M200.595 96.1929H199.783V90.6119H200.595V96.1929Z" fill="#6D6E71"/>
<path d="M205.825 92.0598H204.996C204.979 91.8138 204.902 91.6178 204.762 91.4698C204.623 91.3218 204.449 91.2478 204.243 91.2478C204.042 91.2478 203.867 91.3248 203.716 91.4768C203.565 91.6298 203.491 91.8108 203.491 92.0168C203.491 92.2348 203.555 92.4008 203.683 92.5148C203.811 92.6308 204.052 92.7368 204.407 92.8378C204.761 92.9368 205.02 93.0348 205.185 93.1308C205.349 93.2248 205.496 93.3648 205.624 93.5498C205.819 93.8278 205.917 94.1508 205.917 94.5188C205.917 95.0258 205.752 95.4508 205.423 95.7918C205.094 96.1308 204.684 96.3008 204.193 96.3008C203.691 96.3008 203.278 96.1368 202.954 95.8078C202.631 95.4798 202.464 95.0568 202.452 94.5438H203.256C203.323 95.2198 203.638 95.5568 204.201 95.5568C204.458 95.5568 204.673 95.4668 204.846 95.2878C205.019 95.1108 205.105 94.8908 205.105 94.6268C205.105 94.2318 204.874 93.9558 204.41 93.7998L204.21 93.7318L203.975 93.6578C203.658 93.5568 203.451 93.4808 203.356 93.4318C203.261 93.3818 203.161 93.2948 203.055 93.1718C202.804 92.8938 202.678 92.5488 202.678 92.1428C202.678 91.6678 202.831 91.2758 203.135 90.9678C203.438 90.6568 203.822 90.5038 204.285 90.5038C204.72 90.5038 205.08 90.6458 205.365 90.9328C205.649 91.2198 205.802 91.5958 205.825 92.0598Z" fill="#6D6E71"/>
<path d="M213.873 90.6119V96.1929H213.061V91.4819L211.162 96.1929H210.668L208.769 91.4819V96.1929H207.957V90.6119H209.238L210.911 94.8869L212.593 90.6119H213.873Z" fill="#6D6E71"/>
<path d="M73.9106 93.4156C73.9106 94.0016 73.4356 94.4766 72.8496 94.4766C72.2636 94.4766 71.7886 94.0016 71.7886 93.4156C71.7886 92.8296 72.2636 92.3546 72.8496 92.3546C73.4356 92.3546 73.9106 92.8296 73.9106 93.4156Z" fill="#526081"/>
<path d="M128.195 93.4156C128.195 94.0016 127.72 94.4766 127.134 94.4766C126.548 94.4766 126.073 94.0016 126.073 93.4156C126.073 92.8296 126.548 92.3546 127.134 92.3546C127.72 92.3546 128.195 92.8296 128.195 93.4156Z" fill="#526081"/>
<path d="M118.64 80.9021V82.0371H114.457V73.5321H115.694V80.9021H118.64Z" fill="#13ACA1"/>
<path d="M124.175 78.3901H126.355L125.272 75.1511L124.175 78.3901ZM125.82 73.5321L129.046 82.0371H127.733L126.789 79.5251H123.729L122.785 82.0371H121.472L124.698 73.5321H125.82Z" fill="#13ACA1"/>
<path d="M141.096 73.5321L138.724 82.0371H137.64L136.085 76.0951L134.529 82.0371H133.432L131.061 73.5321H132.349L133.981 79.9331L135.638 73.5321H136.544L138.176 79.8951L139.834 73.5321H141.096Z" fill="#13ACA1"/>
<path d="M151.144 78.3646V82.0376H149.907V73.5316H154.192V74.6796H151.144V77.2296H154.192V78.3646H151.144Z" fill="#13ACA1"/>
<path d="M158.922 82.0371H157.685V73.5321H158.922V82.0371Z" fill="#13ACA1"/>
<path d="M164.163 74.6796V77.9186H165.017C166.582 77.9186 167.364 77.3666 167.364 76.2606C167.364 75.7846 167.192 75.4026 166.847 75.1136C166.503 74.8246 166.046 74.6796 165.476 74.6796H164.163ZM166.165 78.8756L168.55 82.0376H166.994L164.163 78.0846V82.0376H162.926V73.5316H165.553C166.564 73.5316 167.325 73.7746 167.836 74.2586C168.346 74.7436 168.601 75.4106 168.601 76.2606C168.601 77.2476 168.244 77.9656 167.53 78.4156C167.173 78.6456 166.718 78.7986 166.165 78.8756Z" fill="#13ACA1"/>
<path d="M181.238 73.5321V82.0371H180.001V74.8581L177.106 82.0371H176.354L173.459 74.8581V82.0371H172.223V73.5321H174.174L176.724 80.0481L179.287 73.5321H181.238Z" fill="#13ACA1"/>
<path d="M17.5044 87.7759H214.275" stroke="#526081" stroke-width="2" stroke-miterlimit="10"/>
<path d="M55.2928 77.9697H60.6608C60.6438 79.2277 60.2168 80.2757 59.3798 81.1127C58.5418 81.9507 57.5068 82.3687 56.2748 82.3687C55.0678 82.3687 54.0408 81.9417 53.1948 81.0867C52.3488 80.2327 51.9258 79.1937 51.9258 77.9697C51.9258 76.7287 52.3468 75.6787 53.1888 74.8197C54.0298 73.9617 55.0548 73.5317 56.2618 73.5317C57.0608 73.5317 57.8008 73.7387 58.4808 74.1507C59.1608 74.5627 59.6918 75.1217 60.0748 75.8267H58.6338C57.9198 75.0537 57.1458 74.6677 56.3128 74.6677C55.4458 74.6677 54.7058 74.9907 54.0938 75.6367C53.4818 76.2827 53.1758 77.0607 53.1758 77.9697C53.1758 78.8537 53.4858 79.6197 54.1068 80.2647C54.7278 80.9107 55.4668 81.2337 56.3258 81.2337C57.0648 81.2337 57.7368 80.9797 58.3408 80.4687C58.7138 80.1547 59.0208 79.6997 59.2588 79.1047H55.2928V77.9697Z" fill="#526081"/>
<path d="M68.4018 81.0686V82.2026H64.2188V73.6976H65.4557V81.0686H68.4018Z" fill="#526081"/>
<path d="M75.2873 81.2337C76.1883 81.2337 76.9433 80.9197 77.5503 80.2897C78.1583 79.6617 78.4623 78.8787 78.4623 77.9437C78.4623 77.0257 78.1563 76.2507 77.5443 75.6167C76.9323 74.9837 76.1803 74.6667 75.2873 74.6667C74.3943 74.6667 73.6423 74.9837 73.0303 75.6167C72.4183 76.2507 72.1123 77.0257 72.1123 77.9437C72.1123 78.8707 72.4183 79.6507 73.0303 80.2837C73.6423 80.9167 74.3943 81.2337 75.2873 81.2337ZM75.2873 73.5317C76.5193 73.5317 77.5653 73.9617 78.4243 74.8197C79.2833 75.6787 79.7123 76.7247 79.7123 77.9567C79.7123 79.1727 79.2803 80.2117 78.4183 81.0747C77.5553 81.9377 76.5113 82.3687 75.2873 82.3687C74.0633 82.3687 73.0193 81.9377 72.1563 81.0747C71.2943 80.2117 70.8623 79.1727 70.8623 77.9567C70.8623 76.7247 71.2913 75.6787 72.1503 74.8197C73.0093 73.9617 74.0543 73.5317 75.2873 73.5317Z" fill="#526081"/>
<path d="M84.5192 78.3771V81.0681H85.8712C86.3212 81.0681 86.6892 80.9451 86.9742 80.6981C87.2592 80.4521 87.4012 80.1291 87.4012 79.7291C87.4012 79.3041 87.2542 78.9731 86.9612 78.7341C86.6682 78.4961 86.2532 78.3771 85.7182 78.3771H84.5192ZM84.5192 74.8451V77.2431H85.5262C86.4452 77.2431 86.9042 76.8471 86.9042 76.0561C86.9042 75.2491 86.4232 74.8451 85.4632 74.8451H84.5192ZM85.8202 82.2031H83.2822V73.6981H85.4882C86.3212 73.6981 86.9712 73.9141 87.4392 74.3481C87.9072 74.7811 88.1402 75.3511 88.1402 76.0561C88.1402 76.6771 87.8862 77.2131 87.3752 77.6631C88.2172 78.1651 88.6382 78.8581 88.6382 79.7421C88.6382 80.5151 88.3572 81.1361 87.7962 81.6041C87.3202 82.0031 86.6622 82.2031 85.8202 82.2031Z" fill="#526081"/>
<path d="M93.9305 78.5561H96.1105L95.0275 75.3171L93.9305 78.5561ZM95.5755 73.6981L98.8015 82.2031H97.4885L96.5445 79.6911H93.4845L92.5405 82.2031H91.2275L94.4535 73.6981H95.5755Z" fill="#526081"/>
<path d="M106.134 81.0686V82.2026H101.951V73.6976H103.188V81.0686H106.134Z" fill="#526081"/>
</g>
</g>
<defs>
<clipPath id="clip0_244_36">
<rect width="236.65" height="109.94" fill="white"/>
</clipPath>
</defs>
</svg>
